# xmcd
#
# Track frame offsets: 
#        300
#        18759
#        37324
#        50167
#        73370
#        100987
#        118238
#        142300
#        160865
#        180176
#
# Disc length: 2673 seconds
#
# Revision: 0
# Processed by: cddbd v1.5.2PL0 Copyright (c) Steve Scherf et al.
# Submitted via: ExactAudioCopy v1.0b1
#
DISCID=980a6d0a
DTITLE=The Aces - No One Rides For Free
DYEAR=2009
DGENRE=General Blues
TTITLE0=You're Gonna Lose
TTITLE1=Stole Something From Me
TTITLE2=Shed Some Light On Me
TTITLE3=Knee Dip In Mud
TTITLE4=Drinkin Song
TTITLE5=Need Your Lovin'
TTITLE6=Down In The Cave
TTITLE7=Mr Highway Man
TTITLE8=House On The Hill
TTITLE9=Kanka Kanka
EXTD=
EXTT0=
EXTT1=
EXTT2=
EXTT3=
EXTT4=
EXTT5=
EXTT6=
EXTT7=
EXTT8=
EXTT9=
PLAYORDER=
